<?xml version="1.0" encoding="utf-8"?>
<!-- Generator: Adobe Illustrator 24.0.1, SVG Export Plug-In . SVG Version: 6.00 Build 0)  -->
<svg version="1.1" id="Calque_1" xmlns="http://www.w3.org/2000/svg" xmlns:xlink="http://www.w3.org/1999/xlink" x="0px" y="0px"
	 viewBox="0 0 346.2 68.7" style="enable-background:new 0 0 346.2 68.7;" xml:space="preserve">
<style type="text/css">
	.st0{fill:#FFFFFF;}
	.st1{fill:none;stroke:#FFFFFF;stroke-miterlimit:10;}
	.st2{fill:none;stroke:#EDEDED;stroke-width:3;stroke-miterlimit:10;}
	.st3{fill:#EDEDED;stroke:#EDEDED;stroke-width:0.75;stroke-miterlimit:10;}
</style>
<g>
	<path class="st0" d="M34.4,65.1c-1.9,1-6.1,2.3-11.4,2.3c-12,0-19.8-8.1-19.8-20.3c0-12.3,8.4-21.2,21.4-21.2c4.3,0,8.1,1.1,10,2.1
		l-1.6,5.6c-1.7-1-4.4-1.9-8.4-1.9c-9.1,0-14.1,6.7-14.1,15.1c0,9.2,5.9,14.9,13.8,14.9c4.1,0,6.8-1.1,8.9-2L34.4,65.1z"/>
	<path class="st0" d="M78.4,46.3c0,14.7-10.2,21.2-19.8,21.2c-10.8,0-19.1-7.9-19.1-20.5c0-13.3,8.7-21.2,19.8-21.2
		C70.7,25.9,78.4,34.2,78.4,46.3z M46.8,46.8c0,8.7,5,15.3,12.1,15.3c6.9,0,12.1-6.5,12.1-15.5c0-6.7-3.4-15.3-11.9-15.3
		C50.5,31.3,46.8,39.2,46.8,46.8z"/>
	<path class="st0" d="M123.6,46.3c0,14.7-10.2,21.2-19.8,21.2C93,67.5,84.7,59.6,84.7,47c0-13.3,8.7-21.2,19.8-21.2
		C115.9,25.9,123.6,34.2,123.6,46.3z M92,46.8c0,8.7,5,15.3,12.1,15.3c6.9,0,12.1-6.5,12.1-15.5c0-6.7-3.4-15.3-11.9-15.3
		C95.7,31.3,92,39.2,92,46.8z"/>
	<path class="st0" d="M132.8,8.2h7.2v58.4h-7.2V8.2z"/>
	<path class="st0" d="M152.2,8.2h7.2V33h0.2c1.2-2.1,3-3.9,5.2-5.1c2.1-1.2,4.7-2.1,7.4-2.1c5.3,0,13.9,3.3,13.9,17v23.7h-7.2V43.7
		c0-6.4-2.4-11.9-9.2-11.9c-4.7,0-8.4,3.3-9.7,7.2c-0.4,1-0.5,2.1-0.5,3.5v24h-7.2V8.2z"/>
	<path class="st0" d="M233.9,46.3c0,14.7-10.2,21.2-19.8,21.2c-10.8,0-19.1-7.9-19.1-20.5c0-13.3,8.7-21.2,19.8-21.2
		C226.2,25.9,233.9,34.2,233.9,46.3z M202.3,46.8c0,8.7,5,15.3,12.1,15.3c6.9,0,12.1-6.5,12.1-15.5c0-6.7-3.4-15.3-11.9-15.3
		C206,31.3,202.3,39.2,202.3,46.8z"/>
	<path class="st0" d="M243.1,37.5c0-4.1-0.1-7.5-0.3-10.8h6.3l0.3,6.4h0.2c2.2-3.8,5.9-7.3,12.5-7.3c5.4,0,9.5,3.3,11.3,8h0.2
		c1.2-2.2,2.8-4,4.4-5.2c2.4-1.8,5-2.8,8.8-2.8c5.3,0,13.1,3.5,13.1,17.3v23.5h-7.1V44c0-7.7-2.8-12.3-8.6-12.3
		c-4.1,0-7.3,3-8.6,6.6c-0.3,1-0.6,2.3-0.6,3.6v24.6H268V42.7c0-6.3-2.8-10.9-8.3-10.9c-4.5,0-7.8,3.6-9,7.2
		c-0.4,1.1-0.6,2.3-0.6,3.5v24h-7.1V37.5z"/>
	<path class="st0" d="M315.7,48c0.2,9.8,6.4,13.8,13.7,13.8c5.2,0,8.3-0.9,11-2.1l1.2,5.2c-2.6,1.2-6.9,2.5-13.3,2.5
		c-12.3,0-19.6-8.1-19.6-20.1s7.1-21.5,18.7-21.5c13,0,16.5,11.4,16.5,18.8c0,1.5-0.2,2.6-0.2,3.4H315.7z M337,42.8
		c0.1-4.6-1.9-11.8-10-11.8c-7.3,0-10.5,6.7-11.1,11.8H337z"/>
</g>
<g>
	<line class="st1" x1="86.9" y1="46.5" x2="122.2" y2="46.5"/>
	<line class="st1" x1="113.4" y1="61.7" x2="95.7" y2="31.2"/>
	<line class="st1" x1="119.8" y1="55.3" x2="89.3" y2="37.7"/>
	<line class="st1" x1="104.6" y1="64.1" x2="104.6" y2="28.8"/>
	<line class="st1" x1="95.7" y1="61.7" x2="113.4" y2="31.2"/>
	<line class="st1" x1="89.3" y1="55.3" x2="119.8" y2="37.7"/>
</g>
<g>
	<line class="st2" x1="233.6" y1="7.7" x2="226.5" y2="19.8"/>
	<line class="st2" x1="247.6" y1="21.6" x2="233.3" y2="29.8"/>
	<line class="st2" x1="214.4" y1="2.7" x2="214.4" y2="17.5"/>
	<line class="st2" x1="195.1" y1="7.7" x2="202.4" y2="20"/>
	<line class="st2" x1="181.1" y1="21.6" x2="194.5" y2="29.2"/>
</g>
<g>
	<circle class="st3" cx="104.9" cy="46.2" r="8"/>
	<polygon class="st3" points="99.2,40.8 102.7,40.8 101,43.9 99.2,47 97.4,43.9 95.6,40.8 	"/>
</g>
</svg>
