<?xml version="1.0" encoding="utf-8"?>
<!-- Generator: Adobe Illustrator 24.0.1, SVG Export Plug-In . SVG Version: 6.00 Build 0)  -->
<svg version="1.1" id="Calque_1" xmlns="http://www.w3.org/2000/svg" xmlns:xlink="http://www.w3.org/1999/xlink" x="0px" y="0px"
	 viewBox="0 0 349.6 75.6" style="" xml:space="preserve">
<style type="text/css">
	.st0{fill:none;stroke:#FFFFFF;stroke-miterlimit:10;}
	.st1{fill:none;stroke:#000000;stroke-width:3;stroke-miterlimit:10;}
	.st2{stroke:#000000;stroke-width:0.75;stroke-miterlimit:10;}
</style>
<g>
	<path d="M34.2,69.4c-1.9,1-6.1,2.3-11.4,2.3C10.8,71.7,3,63.6,3,51.4c0-12.3,8.4-21.2,21.4-21.2c4.3,0,8.1,1.1,10,2.1l-1.6,5.6
		c-1.7-1-4.4-1.9-8.4-1.9c-9.1,0-14.1,6.7-14.1,15.1c0,9.2,5.9,14.9,13.8,14.9c4.1,0,6.8-1.1,8.9-2L34.2,69.4z"/>
	<path d="M78.2,50.7c0,14.7-10.2,21.2-19.8,21.2c-10.8,0-19.1-7.9-19.1-20.5c0-13.3,8.7-21.2,19.8-21.2
		C70.5,30.2,78.2,38.5,78.2,50.7z M46.6,51.1c0,8.7,5,15.3,12.1,15.3c6.9,0,12.1-6.5,12.1-15.5c0-6.7-3.4-15.3-11.9-15.3
		C50.3,35.6,46.6,43.5,46.6,51.1z"/>
	<path d="M123.4,50.7c0,14.7-10.2,21.2-19.8,21.2c-10.8,0-19.1-7.9-19.1-20.5c0-13.3,8.7-21.2,19.8-21.2
		C115.6,30.2,123.4,38.5,123.4,50.7z M91.8,51.1c0,8.7,5,15.3,12.1,15.3c6.9,0,12.1-6.5,12.1-15.5c0-6.7-3.4-15.3-11.9-15.3
		C95.5,35.6,91.8,43.5,91.8,51.1z"/>
	<path d="M132.5,12.5h7.2v58.4h-7.2V12.5z"/>
	<path d="M151.9,12.5h7.2v24.9h0.2c1.2-2.1,3-3.9,5.2-5.1c2.1-1.2,4.7-2.1,7.4-2.1c5.3,0,13.9,3.3,13.9,17v23.7h-7.2V48
		c0-6.4-2.4-11.9-9.2-11.9c-4.7,0-8.4,3.3-9.7,7.2c-0.4,1-0.5,2.1-0.5,3.5v24h-7.3V12.5z"/>
	<path d="M233.7,50.7c0,14.7-10.2,21.2-19.8,21.2c-10.8,0-19.1-7.9-19.1-20.5c0-13.3,8.7-21.2,19.8-21.2
		C225.9,30.2,233.7,38.5,233.7,50.7z M202.1,51.1c0,8.7,5,15.3,12.1,15.3c6.9,0,12.1-6.5,12.1-15.5c0-6.7-3.4-15.3-11.9-15.3
		C205.8,35.6,202.1,43.5,202.1,51.1z"/>
	<path d="M242.8,41.9c0-4.1-0.1-7.5-0.3-10.8h6.3l0.3,6.4h0.2c2.2-3.8,5.9-7.3,12.5-7.3c5.4,0,9.5,3.3,11.3,8h0.2
		c1.2-2.2,2.8-4,4.4-5.2c2.4-1.8,5-2.8,8.8-2.8c5.3,0,13.1,3.5,13.1,17.3V71h-7.1V48.4c0-7.7-2.8-12.3-8.6-12.3
		c-4.1,0-7.3,3-8.6,6.6c-0.3,1-0.6,2.3-0.6,3.6v24.6h-7.1V47c0-6.3-2.8-10.9-8.3-10.9c-4.5,0-7.8,3.6-9,7.2
		c-0.4,1.1-0.6,2.3-0.6,3.5v24h-7.1V41.9H242.8z"/>
	<path d="M315.5,52.3c0.2,9.8,6.4,13.8,13.7,13.8c5.2,0,8.3-0.9,11-2.1l1.2,5.2c-2.6,1.2-6.9,2.5-13.3,2.5
		c-12.3,0-19.6-8.1-19.6-20.1s7.1-21.5,18.7-21.5c13,0,16.5,11.4,16.5,18.8c0,1.5-0.2,2.6-0.2,3.4L315.5,52.3L315.5,52.3z
		 M336.7,47.1c0.1-4.6-1.9-11.8-10-11.8c-7.3,0-10.5,6.7-11.1,11.8H336.7z"/>
</g>
<g>
	<line class="st0" x1="86.7" y1="50.8" x2="121.9" y2="50.8"/>
	<line class="st0" x1="113.1" y1="66.1" x2="95.5" y2="35.5"/>
	<line class="st0" x1="119.6" y1="59.6" x2="89" y2="42"/>
	<line class="st0" x1="104.3" y1="68.4" x2="104.3" y2="33.2"/>
	<line class="st0" x1="95.5" y1="66.1" x2="113.1" y2="35.5"/>
	<line class="st0" x1="89" y1="59.6" x2="119.6" y2="42"/>
</g>
<g>
	<line class="st1" x1="233.3" y1="12.1" x2="226.3" y2="24.1"/>
	<line class="st1" x1="247.4" y1="25.9" x2="233" y2="34.1"/>
	<line class="st1" x1="214.1" y1="7" x2="214.1" y2="21.9"/>
	<line class="st1" x1="194.9" y1="12.1" x2="202.1" y2="24.4"/>
	<line class="st1" x1="180.8" y1="25.9" x2="194.2" y2="33.5"/>
</g>
<g>
	<circle class="st2" cx="104.7" cy="50.5" r="8"/>
	<polygon class="st2" points="98.9,45.1 102.5,45.1 100.7,48.2 98.9,51.3 97.1,48.2 95.4,45.1 	"/>
</g>
</svg>
